<svg xmlns="http://www.w3.org/2000/svg" xmlns:xlink="http://www.w3.org/1999/xlink" width="500" zoomAndPan="magnify" viewBox="0 0 375 374.999991" height="500" preserveAspectRatio="xMidYMid meet" version="1.0"><path stroke-linecap="butt" transform="matrix(1.358117, 0, 0, 1.358117, 45.013562, -142.88923)" fill="none" stroke-linejoin="miter" d="M 140.76687 222.88056 C 150.491388 225.365619 158.541943 229.202503 164.915659 234.388338 C 171.346899 239.577049 176.883633 246.330426 181.528737 254.64847 C 186.231365 262.914742 191.118073 274.235565 196.197487 288.605188 L 222.699028 362.998759 L 175.612341 362.998759 L 150.330319 293.30494 C 147.249882 284.661883 144.43981 278.069574 141.900102 273.53089 C 139.363272 268.992206 135.76799 265.184084 131.122886 262.106523 C 126.477782 258.971437 119.940121 256.756743 111.509904 255.459566 L 75.042242 295.97983 L 75.042242 362.998759 L 28.20291 362.998759 L 28.20291 130.657267 L 75.042242 130.657267 L 75.042242 237.227172 L 168.96826 130.657267 L 224.07674 130.657267 Z M 140.76687 222.88056 " stroke="#000000" stroke-width="2.282088" stroke-opacity="1" stroke-miterlimit="4"/><path stroke-linecap="butt" transform="matrix(1.358117, 0, 0, 1.358117, 15.317134, -142.88923)" fill="none" stroke-linejoin="miter" d="M 140.767691 222.88056 C 150.492209 225.365619 158.542764 229.202503 164.91648 234.388338 C 171.344844 239.577049 176.884454 246.330426 181.529558 254.64847 C 186.22931 262.914742 191.118894 274.235565 196.198308 288.605188 L 222.696973 362.998759 L 175.613162 362.998759 L 150.328264 293.30494 C 147.250703 284.661883 144.440631 278.069574 141.900923 273.53089 C 139.361216 268.992206 135.768811 265.184084 131.123707 262.106523 C 126.475726 258.971437 119.938066 256.756743 111.510725 255.459566 L 75.043063 295.97983 L 75.043063 362.998759 L 28.200855 362.998759 L 28.200855 130.657267 L 75.043063 130.657267 L 75.043063 237.227172 L 168.969081 130.657267 L 224.074685 130.657267 Z M 140.767691 222.88056 " stroke="#000000" stroke-width="2.282088" stroke-opacity="1" stroke-miterlimit="4"/></svg>